<?xml version="1.0" encoding="utf-8"?>
<!-- Generator: Adobe Illustrator 26.0.2, SVG Export Plug-In . SVG Version: 6.00 Build 0)  -->
<svg version="1.1" id="Layer_1" xmlns="http://www.w3.org/2000/svg" xmlns:xlink="http://www.w3.org/1999/xlink" x="0px" y="0px"
	 viewBox="0 0 162 117" style="enable-background:new 0 0 162 117;" xml:space="preserve">
<style type="text/css">
	.st0{fill:#010101;}
</style>
<path class="st0" d="M7.01,101.26c-1.83-4.25,0.16-8.89,2.38-12.56c0.75-2.69,3-5.12,6.02-4.27c4.02,1.25,3.43,4.76,2.72,8.04
	c0-0.07,0.01-0.14,0.01-0.2c-0.04,0.67-0.08,1.34-0.12,2.02c13.58-2.4,27.05-6.45,39.7-11.96c17.35-8.81,5.7-12.42-6.78-13.11
	c-8.05-0.45-16.08,0.33-24.08,1.15c-2,0.18-4.22,0.28-5.91-1.01c-4.47-3.77-0.06-8.5,3.98-10.18c6.62-3.96,13.52-7.49,19.66-12.17
	c-4.28,0.6-8.57,1.44-12.67,2.83c-1,0.26-1.74,1.08-2.8,1.13c-1.4,0.04-2.55-1.43-2.13-2.77c0,0,0,0-0.01,0.01
	c2.1-3.59,11.02-4.84,14.98-6.27c3.75-1.01,9.89-2.61,11.49,2.31c1.01,7.05-10.05,12.66-14.84,16.48
	c42.43-2.74,50.92,21.56,8.93,36.75C38.41,100.27,11.74,113.87,7.01,101.26z"/>
<path class="st0" d="M32.72,78.33c-0.67-18.46-0.19-36.97,0.16-55.44c0.05-5.17,0.39-10.34,0.24-15.51
	C32.7,5.97,33.44,4.3,34.83,3.7c1.74-0.76,4.07,0.4,4.21,2.39c0.56,18.64-0.81,37.36-0.3,56.03c0.03,5.53,0.32,11.06-0.01,16.58
	c-0.1,1.48-1.55,2.63-2.97,2.64C34.05,81.36,32.78,79.95,32.72,78.33z"/>
<path class="st0" d="M24.05,73.94c-1.27-6.28-1.7-12.69-1.87-19.09c0.01-1.03-0.11-2.06,0.03-3.08c0.21-2.05,2.95-3.02,4.37-1.51
	c1.49,1.69,1.32,4.21,1.79,6.3c0.76,5.61,1.27,11.28,1.34,16.95C29.83,76.96,24.46,77.35,24.05,73.94z"/>
<path class="st0" d="M79.19,83.69c-1.01-3.94-1.23-22.01,1.28-24.7c1.41-1.51,3.72-1.33,5.17-0.04c2.51,2.85,3.77,19.77,3.26,24.02
	C88.34,88.2,80.48,88.77,79.19,83.69z"/>
<path class="st0" d="M78.06,54.4c-1.09,0.67-2.47,0.73-3.6,0.12c-5.31-3.2,2.78-13.1,5-16.66c2.69-3.77,8.65-0.03,6.4,4.01
	C83.05,45.87,81.64,51.03,78.06,54.4z"/>
<path class="st0" d="M86.92,56.36c-8.34-5.6-14.94-13.5-22.44-20.16c-3-2.85,1.26-7.41,4.33-4.63c2.05,1.82,4.13,3.57,6.25,5.28
	c-0.11-0.09-0.22-0.18-0.34-0.28c5.56,4.62,10.83,9.57,16.13,14.46l0,0C93.11,53.64,90.06,57.71,86.92,56.36z"/>
<path class="st0" d="M95.11,78.54c-1.69-10.06-0.54-20.49-0.92-30.67c0.38-4.05-0.89-8.87,1.32-12.43c1.22-1.25,3.32-1.12,4.39,0.25
	c1.06,1.48,0.8,3.4,1.08,5.12c0.86,12.58,3.39,25.67,1.06,38.14C100.85,82.16,95.97,81.77,95.11,78.54z"/>
<path class="st0" d="M108.97,90.02c-1.45-14.35-2.03-28.78-2.39-43.19c-0.21-7.92-0.1-15.85,0.4-23.76
	c0.29-2.43-0.12-5.15,1.21-7.31c1.11-1.56,3.41-1.42,4.57-0.03c1.15,1.43,0.82,3.39,0.96,5.1c0.5,17.8,1.64,35.59,2.48,53.38
	c0.22,5.06,0.42,10.17,0.24,15.23c-0.07,1.85-1.32,3.47-3.21,3.74C111.23,93.47,109.24,92.01,108.97,90.02z"/>
<path class="st0" d="M123.56,64.06c-1.11-2.72-7.12-12.75-0.46-11.83c1.05,0.41,1.69,1.56,2.3,2.44c2.01,3.02,4.38,5.92,5.68,9.34
	c0.46,1.38-0.25,2.96-1.46,3.68C126.8,69.34,124.62,66.35,123.56,64.06z"/>
<path class="st0" d="M125.01,67.49c-0.67-5.16,6.88-13.54,9.9-17.83c3.03-3.33,8.84,0.51,6.94,4.6
	C139.57,57.88,129.21,76.26,125.01,67.49z"/>
<path class="st0" d="M124.56,78.03c-0.6-3.71,0.17-7.44,0.34-11.17c0.15-1.38,0.4-2.77,1.54-3.69c2.51-1.98,5.57,0.59,5.46,3.41
	c0.17,3.94,0.69,7.97-0.16,11.86C130.88,82.22,125.04,81.82,124.56,78.03z"/>
</svg>
