<?xml version="1.0" encoding="utf-8"?>
<!-- Generator: Adobe Illustrator 26.0.2, SVG Export Plug-In . SVG Version: 6.00 Build 0)  -->
<svg version="1.1" id="Layer_1" xmlns="http://www.w3.org/2000/svg" xmlns:xlink="http://www.w3.org/1999/xlink" x="0px" y="0px"
	 viewBox="0 0 162 117" style="enable-background:new 0 0 162 117;" xml:space="preserve">
<style type="text/css">
	.st0{fill:#010101;}
</style>
<path class="st0" d="M7.01,101.26c-0.75-1.61-0.81-3.54-0.58-5.26c0.17-1.27,0.59-2.48,1.06-3.66c0.5-1.28,1.26-2.44,1.9-3.64
	c0.25-0.54,0.48-1.08,0.69-1.64c0.81-2.08,3.2-3.2,5.33-2.63c2.32,0.62,3.89,3.16,3.19,5.52c-0.12,0.4-0.23,0.81-0.32,1.22
	c-0.07,0.43-0.12,0.86-0.15,1.3c0-0.07,0.01-0.14,0.01-0.2c-0.04,0.67-0.08,1.34-0.12,2.02c1.56-0.19,3.1-0.47,4.65-0.78
	c8.77-1.97,17.41-4.58,25.92-7.46c1.51-0.55,3.01-1.11,4.52-1.69c1.57-0.61,3.08-1.32,4.61-2.03c0.84-0.44,1.68-0.87,2.5-1.35
	c0.84-0.49,1.64-1.01,2.44-1.54c0.55-0.41,1.09-0.84,1.61-1.28c0.38-0.36,0.76-0.74,1.11-1.13c0.22-0.28,0.44-0.56,0.64-0.85
	c0.14-0.23,0.27-0.46,0.39-0.7c0.04-0.1,0.08-0.19,0.12-0.29c0.04-0.15,0.07-0.3,0.11-0.44c0.01-0.07,0.02-0.14,0.03-0.2
	c0-0.07,0-0.14-0.01-0.22c-0.01-0.07-0.02-0.14-0.03-0.21c-0.01-0.04-0.02-0.09-0.04-0.13c-0.04-0.1-0.09-0.21-0.13-0.31
	c-0.03-0.05-0.06-0.11-0.09-0.16c-0.07-0.1-0.15-0.19-0.22-0.29c-0.11-0.12-0.23-0.23-0.35-0.35c-0.17-0.14-0.33-0.27-0.51-0.39
	c-0.4-0.26-0.81-0.49-1.24-0.72c-0.82-0.37-1.66-0.69-2.51-0.99c-0.95-0.26-1.9-0.49-2.86-0.7c-2.57-0.41-5.14-0.67-7.74-0.86
	c-2.43-0.1-4.86-0.13-7.3-0.11c-2.35,0.02-4.7,0.18-7.04,0.34c-3.25,0.28-6.49,0.62-9.74,0.92c-2,0.18-4.22,0.28-5.91-1.01
	c-1.75-1.33-2.32-3.71-1.42-5.69c1-2.18,3.43-3.33,5.4-4.49c5.6-3.3,11.3-6.41,16.7-10.01c1.01-0.7,2-1.41,2.96-2.16
	c-2.13,0.29-4.24,0.67-6.35,1.1c-2.14,0.48-4.25,1.02-6.32,1.73c-0.43,0.17-0.85,0.34-1.27,0.53c-0.05,0.03-0.1,0.05-0.14,0.08
	c-0.38,0.32-0.87,0.51-1.39,0.52c-0.97,0.01-1.86-0.66-2.13-1.59c-0.11-0.4-0.11-0.8,0-1.18c0,0,0,0-0.01,0.01
	c0.18-0.77,0.81-1.28,1.46-1.64c0.88-0.48,1.8-0.87,2.72-1.25c1.78-0.74,3.64-1.3,5.48-1.87c1.76-0.54,3.54-1.04,5.32-1.51
	c1.72-0.46,3.53-0.9,5.32-1.05c1.05-0.07,2.09-0.08,3.11,0.26c1.46,0.49,2.63,1.59,3.06,3.1c0.78,2.75-1.36,5.55-3.2,7.37
	c-2.33,2.31-4.91,4.38-7.58,6.28c-1.35,0.95-2.7,1.9-4.06,2.83c2.8-0.12,5.61-0.17,8.42-0.06c3.73,0.14,7.41,0.49,11.1,1.03
	c4.36,0.65,8.77,2.09,12.36,4.69c1.72,1.24,3.04,2.99,3.83,4.95c0.91,2.27,0.8,4.87,0.01,7.16c-1.3,3.75-4.22,6.61-7.28,8.99
	c-3.02,2.36-6.43,4.13-9.85,5.83c-3.13,1.56-6.41,2.86-9.66,4.16c-3.37,1.34-6.78,2.59-10.19,3.79c-5.06,1.78-10.19,3.46-15.44,4.6
	c-1.83,0.38-3.62,0.7-5.5,0.83c-1.88,0.13-3.8-0.28-5.47-1.13c-1.6-0.81-2.77-2.09-3.61-3.63C7.23,101.7,7.12,101.49,7.01,101.26z"
	/>
<path class="st0" d="M32.72,78.33c-0.33-6.42-0.28-12.87-0.3-19.3c-0.02-6.61,0.03-13.21,0.14-19.83
	c0.09-5.44,0.21-10.88,0.32-16.31c0.05-2.69,0.12-5.39,0.19-8.08c0.06-2.47,0.16-4.96,0.05-7.43C32.7,5.97,33.44,4.3,34.83,3.7
	c1.73-0.75,4.03,0.38,4.21,2.35c0,0.01,0,0.03,0,0.04c0.23,1.29,0.18,2.64,0.19,3.95c0.01,1.57-0.02,3.15-0.04,4.72
	c-0.05,3.21-0.11,6.41-0.15,9.62c-0.1,6.9-0.24,13.79-0.34,20.69c-0.09,5.68-0.04,11.37,0.04,17.05c0.04,2.81,0.09,5.63,0.12,8.44
	c0.03,2.71,0.06,5.43-0.13,8.14c-0.1,1.48-1.55,2.63-2.97,2.64c-1.17,0.01-2.13-0.64-2.65-1.58C32.88,79.33,32.74,78.84,32.72,78.33
	z"/>
<path class="st0" d="M24.05,73.94c-0.13-0.86-0.31-1.72-0.48-2.57c-0.18-0.89-0.29-1.78-0.41-2.68c-0.23-1.75-0.39-3.51-0.53-5.27
	c-0.15-1.92-0.28-3.84-0.37-5.77c-0.04-0.93-0.06-1.87-0.08-2.8c-0.01-0.39-0.01-0.77-0.02-1.15c-0.01-0.64-0.05-1.3,0.05-1.93
	c0.14-0.9,0.69-1.68,1.54-2.04c0.94-0.41,2.11-0.21,2.83,0.53c0.55,0.56,0.86,1.22,1.02,1.98c0.12,0.56,0.24,1.12,0.34,1.68
	c0.16,0.88,0.3,1.76,0.43,2.64c0.28,1.88,0.47,3.78,0.66,5.68c0.2,1.93,0.37,3.86,0.51,5.8c0.13,1.82,0.08,3.65,0.17,5.47
	c0.07,1.4-1.09,2.65-2.44,2.84c-1.21,0.17-2.36-0.46-2.91-1.48C24.21,74.59,24.1,74.27,24.05,73.94z"/>
<path class="st0" d="M79.19,83.69c-0.52-2-0.68-4.08-0.68-6.15s0.04-4.13,0.12-6.19c0.08-2.15,0.17-4.29,0.32-6.43
	c0.13-2.01,0.07-4.36,1.52-5.93c1.41-1.51,3.72-1.33,5.17-0.04c0.92,0.82,1.18,2.01,1.42,3.15c0.18,0.87,0.31,1.75,0.45,2.62
	c0.32,1.96,0.53,3.93,0.78,5.9c0.24,1.94,0.45,3.88,0.63,5.82c0.19,2.17,0.33,4.37-0.02,6.53c-0.35,2.19-1.98,3.96-4.21,4.28
	c-2.02,0.29-4.12-0.76-5.09-2.53C79.42,84.4,79.29,84.06,79.19,83.69z"/>
<path class="st0" d="M78.06,54.4c-1.09,0.67-2.47,0.73-3.6,0.12c-1.16-0.63-1.77-1.77-1.87-3.05c-0.1-1.25,0.55-2.6,1.06-3.71
	c0.53-1.17,1.06-2.35,1.66-3.48c1.2-2.26,2.64-4.35,4.15-6.42c1.11-1.52,3.21-2.02,4.87-1.12c1.75,0.95,2.6,3.37,1.53,5.13
	c-1.24,2.03-2.39,4.12-3.54,6.2c-0.56,1.02-1.11,2.04-1.68,3.05c-0.6,1.06-1.26,2.28-2.26,3.04C78.29,54.26,78.17,54.33,78.06,54.4z
	"/>
<path class="st0" d="M86.92,56.36c-0.75-0.29-1.4-0.82-2.02-1.31c-0.58-0.45-1.14-0.92-1.69-1.39c-2.3-1.97-4.56-3.97-6.79-6.03
	c-4.05-3.74-7.83-7.75-11.94-11.43c-1.29-1.15-1.31-3.24-0.15-4.48c1.21-1.29,3.19-1.29,4.48-0.15c1.4,1.23,2.8,2.45,4.23,3.63
	c0.67,0.55,1.35,1.1,2.02,1.65c-0.11-0.09-0.22-0.18-0.34-0.28c2.85,2.34,5.59,4.79,8.3,7.27c1.36,1.24,2.71,2.49,4.07,3.73
	c0.66,0.61,1.33,1.21,1.99,1.82c0.51,0.46,1.08,0.9,1.56,1.4c0.04,0.04,0.08,0.08,0.11,0.12c0.03,0.04,0.07,0.08,0.1,0.12
	c0,0,0,0,0,0c0.26,0.33,0.47,0.71,0.61,1.12c0.41,1.2,0.04,2.43-0.76,3.36c-0.13,0.15-0.27,0.29-0.43,0.41
	C89.34,56.63,87.99,56.77,86.92,56.36z"/>
<path class="st0" d="M95.11,78.54c-0.31-0.91-0.49-1.77-0.54-2.74c-0.04-0.79-0.08-1.58-0.11-2.37c-0.07-1.64-0.12-3.28-0.17-4.92
	c-0.1-3.46-0.07-6.92-0.07-10.38c0-3.42-0.01-6.84-0.03-10.26c-0.01-1.78,0-3.56,0.04-5.33c0.02-0.76,0.05-1.52,0.09-2.28
	c0.05-1.01,0.05-2.07,0.28-3.06c0.16-0.67,0.42-1.26,0.91-1.76c1.22-1.25,3.32-1.12,4.39,0.25c0.55,0.71,0.72,1.56,0.81,2.43
	c0.09,0.89,0.18,1.79,0.27,2.69c0.17,1.67,0.33,3.35,0.49,5.03c0.34,3.53,0.66,7.07,0.92,10.61c0.25,3.41,0.48,6.84,0.5,10.26
	c0.01,1.74,0,3.48-0.04,5.22c-0.03,1.63-0.04,3.28-0.2,4.91c-0.07,0.72-0.37,1.43-0.61,2.11c-0.49,1.36-1.95,2.26-3.36,2.27
	c-1.44,0.01-2.61-0.8-3.26-1.99C95.3,79,95.19,78.78,95.11,78.54z"/>
<path class="st0" d="M108.97,90.02c-0.44-3.56-0.68-7.14-0.92-10.72c-0.25-3.63-0.45-7.26-0.66-10.89
	c-0.4-7.19-0.67-14.38-0.81-21.58c-0.1-5.15-0.18-10.3,0.01-15.45c0.1-2.77,0.23-5.54,0.39-8.31c0.07-1.28,0.15-2.56,0.26-3.84
	c0.1-1.22,0.22-2.44,0.95-3.47c1.11-1.56,3.41-1.42,4.57-0.03c0.5,0.6,0.76,1.4,0.82,2.17c0.08,0.98,0.11,1.95,0.14,2.93
	c0.06,1.81,0.11,3.61,0.17,5.42c0.13,3.58,0.28,7.17,0.44,10.75c0.32,7.28,0.7,14.57,1.09,21.85c0.27,5.12,0.56,10.24,0.78,15.36
	c0.22,5.06,0.42,10.17,0.24,15.23c-0.07,1.85-1.32,3.47-3.21,3.74c-1.55,0.22-3.11-0.6-3.84-1.93
	C109.17,90.88,109.03,90.47,108.97,90.02z"/>
<path class="st0" d="M123.56,64.06c-0.6-1.14-1.14-2.3-1.63-3.5c-0.43-1.06-0.85-2.12-1.24-3.19c-0.43-1.18-1.1-2.67-0.53-3.92
	c0.52-1.13,1.76-1.67,2.94-1.22c1.05,0.41,1.69,1.56,2.3,2.44c0.67,0.95,1.32,1.91,1.98,2.87c0.69,1,1.36,2.02,1.99,3.06
	c0.66,1.1,1.31,2.19,1.71,3.41c0.46,1.38-0.25,2.96-1.46,3.68c-1.23,0.73-2.93,0.56-3.94-0.48c-0.74-0.76-1.3-1.66-1.81-2.59
	C123.75,64.44,123.65,64.25,123.56,64.06z"/>
<path class="st0" d="M125.01,67.49c-0.53-1.71,0.44-3.62,1.23-5.1c0.77-1.45,1.62-2.86,2.52-4.24c0.98-1.47,1.99-2.91,3.01-4.34
	c1.01-1.41,1.97-2.88,3.14-4.15c1.29-1.39,3.52-1.63,5.13-0.7c1.74,1.01,2.72,3.41,1.81,5.3c-0.79,1.63-1.86,3.13-2.87,4.63
	c-0.9,1.32-1.82,2.64-2.79,3.91c-1.02,1.34-2.1,2.66-3.24,3.9c-0.63,0.68-1.28,1.35-1.98,1.95c-0.67,0.57-1.47,1.08-2.36,1.18
	c-1.4,0.16-2.68-0.51-3.32-1.69C125.17,67.93,125.08,67.71,125.01,67.49z"/>
<path class="st0" d="M124.56,78.03c-0.2-1.27-0.31-2.56-0.22-3.84c0.09-1.27,0.21-2.53,0.3-3.8c0.08-1.17,0.14-2.35,0.26-3.53
	c0.15-1.38,0.4-2.77,1.54-3.69c0.97-0.78,2.5-0.93,3.57-0.26c1.33,0.83,1.76,2.2,1.89,3.67c0.11,1.25,0.16,2.5,0.2,3.76
	c0.04,1.3,0.06,2.6,0.11,3.9c0.05,1.41-0.19,2.82-0.47,4.2c-0.32,1.58-1.96,2.7-3.51,2.71c-1.38,0.01-2.61-0.77-3.24-1.93
	C124.77,78.87,124.63,78.46,124.56,78.03z"/>
</svg>
