<?xml version="1.0" encoding="utf-8"?>
<!-- Generator: Adobe Illustrator 26.0.2, SVG Export Plug-In . SVG Version: 6.00 Build 0)  -->
<svg version="1.1" id="Layer_1" xmlns="http://www.w3.org/2000/svg" xmlns:xlink="http://www.w3.org/1999/xlink" x="0px" y="0px"
	 viewBox="0 0 63 63" style="enable-background:new 0 0 63 63;" xml:space="preserve">
<style type="text/css">
	.st0{fill:#010101;}
</style>
<path class="st0" d="M61.11,31.62c-3.59-2.6-8-4.04-12.36-4.69c-3.69-0.55-7.38-0.89-11.1-1.03c-2.77-0.11-5.55-0.06-8.31,0.06
	c0-0.02,0-0.05,0-0.07c1.32-0.91,2.64-1.83,3.95-2.76c2.68-1.89,5.25-3.97,7.58-6.28c1.84-1.82,3.98-4.62,3.2-7.37
	c-0.43-1.51-1.6-2.61-3.06-3.1c-1.02-0.34-2.06-0.33-3.11-0.26c-1.78,0.15-3.59,0.59-5.32,1.05c-1.08,0.29-2.16,0.59-3.23,0.9
	c0.04-2.69,0.09-5.38,0.13-8.07h-6.23c-0.03,1.49-0.06,2.97-0.09,4.46c-0.03,1.86-0.05,3.73-0.07,5.59
	c-0.44,0.16-0.88,0.33-1.31,0.51c-0.92,0.38-1.85,0.77-2.72,1.25c-0.66,0.36-1.28,0.87-1.46,1.64c0,0,0,0,0.01-0.01
	c-0.11,0.37-0.11,0.78,0,1.18c0.27,0.94,1.15,1.6,2.13,1.6c0.52,0,1.01-0.2,1.39-0.52c0.05-0.03,0.09-0.05,0.14-0.08
	c0.42-0.19,0.84-0.36,1.27-0.53c0.17-0.06,0.33-0.11,0.5-0.16c-0.01,1.72-0.01,3.44-0.01,5.15c-1.32,0.77-2.65,1.54-3.97,2.3
	c-0.03-0.19-0.04-0.38-0.07-0.57c-0.13-0.88-0.27-1.77-0.43-2.64c-0.1-0.56-0.22-1.12-0.34-1.68c-0.17-0.76-0.48-1.42-1.02-1.98
	c-0.72-0.74-1.89-0.94-2.83-0.53c-0.84,0.36-1.4,1.14-1.54,2.04c-0.1,0.63-0.06,1.29-0.05,1.93c0.01,0.38,0.01,0.77,0.02,1.15
	c0.02,0.93,0.04,1.87,0.08,2.8c0.04,1,0.1,2.01,0.17,3.01c-1.21,0.79-2.31,1.71-2.9,3c-0.9,1.98-0.33,4.36,1.42,5.69
	c0.74,0.56,1.57,0.85,2.44,0.99c0.05,0.34,0.11,0.68,0.17,1.02c0.17,0.86,0.35,1.71,0.48,2.57c0.05,0.33,0.16,0.65,0.32,0.93
	c0.56,1.02,1.7,1.65,2.91,1.48c1.35-0.2,2.51-1.44,2.44-2.84c-0.06-1.14-0.06-2.28-0.09-3.41c0.95-0.09,1.89-0.18,2.84-0.27
	c0.04,2.84,0.1,5.67,0.25,8.5c0.03,0.51,0.17,1,0.4,1.43c0.51,0.94,1.48,1.59,2.65,1.58c1.42-0.01,2.88-1.16,2.97-2.64
	c0.19-2.71,0.16-5.43,0.13-8.14c0-0.42-0.01-0.84-0.02-1.26c1.59-0.1,3.19-0.18,4.79-0.2c2.44-0.02,4.86,0.01,7.3,0.11
	c2.6,0.19,5.17,0.45,7.74,0.86c0.96,0.21,1.91,0.44,2.86,0.7c0.85,0.3,1.69,0.62,2.51,0.99c0.43,0.22,0.84,0.46,1.24,0.72
	c0.17,0.13,0.34,0.26,0.51,0.39c0.12,0.11,0.24,0.23,0.35,0.35c0.07,0.1,0.15,0.19,0.22,0.29c0.03,0.05,0.06,0.1,0.09,0.16
	c0.04,0.1,0.09,0.21,0.13,0.31c0.01,0.04,0.02,0.09,0.04,0.13c0.01,0.07,0.02,0.14,0.03,0.21c0,0.07,0,0.14,0.01,0.22
	c-0.01,0.07-0.02,0.14-0.03,0.2c-0.04,0.15-0.07,0.29-0.11,0.44c-0.04,0.1-0.08,0.2-0.12,0.29c-0.12,0.24-0.26,0.47-0.39,0.7
	c-0.21,0.29-0.42,0.57-0.64,0.85c-0.36,0.39-0.73,0.77-1.11,1.13c-0.52,0.45-1.06,0.87-1.61,1.28c-0.8,0.54-1.6,1.05-2.44,1.54
	c-0.82,0.48-1.66,0.91-2.5,1.35c-1.52,0.71-3.04,1.43-4.61,2.03c-1.5,0.58-3,1.14-4.52,1.69c-8.51,2.88-17.15,5.49-25.92,7.46
	c-1.55,0.31-3.09,0.59-4.65,0.78c0.04-0.67,0.08-1.34,0.12-2.02c0,0.07-0.01,0.14-0.01,0.2c0.04-0.44,0.09-0.86,0.15-1.3
	c0.09-0.41,0.2-0.82,0.32-1.22c0.7-2.35-0.87-4.9-3.19-5.52c-2.13-0.57-4.51,0.55-5.33,2.63C0.47,52.87,0.24,53.4,0,53.94V63h37.39
	c0.26-0.1,0.52-0.19,0.77-0.3c3.25-1.3,6.52-2.6,9.66-4.16c3.42-1.7,6.82-3.47,9.85-5.83c1.97-1.53,3.88-3.27,5.33-5.31V33.4
	C62.44,32.74,61.82,32.13,61.11,31.62z M29.3,13.27c1.96-0.39,3.93-0.74,5.91-1.01c-0.96,0.75-1.95,1.46-2.96,2.16
	c-0.98,0.65-1.97,1.27-2.96,1.89C29.28,15.29,29.29,14.28,29.3,13.27z"/>
</svg>
